<svg xmlns="http://www.w3.org/2000/svg" xmlns:xlink="http://www.w3.org/1999/xlink" version="1.1" style="" xml:space="preserve" width="480.698" height="480.698"><rect id="backgroundrect" width="100%" height="100%" x="0" y="0" fill="none" stroke="none"/>
















<g class="currentLayer" style=""><title>Layer 1</title><g id="svg_1" class="selected" fill="#d5d50b" fill-opacity="1">
	<path d="M185.561,179.755c-8.7-8.7-22.7-8.7-31.3,0c-8.7,8.7-8.7,22.7,0,31.3s22.7,8.6,31.3,0   C194.261,202.355,194.261,188.355,185.561,179.755z" id="svg_2" fill="#d5d50b" fill-opacity="1"/>
	<path d="M295.161,269.655c-8.7,8.6-8.6,22.7,0,31.3c8.6,8.7,22.7,8.7,31.3,0c8.7-8.6,8.7-22.7,0-31.3   C317.761,261.055,303.761,261.055,295.161,269.655z" id="svg_3" fill="#d5d50b" fill-opacity="1"/>
	<path d="M410.361,70.355c-93.9-93.8-246.1-93.8-340,0c-90.3,90.4-93.7,234.8-10.1,329.2l2.4,2c-9.1,19.6-24.7,43.8-49.5,56   c-8.2,4-6.3,16.2,2.7,17.6c27.1,4.2,66-0.5,102.2-27.9l0.5,0.4c92.1,54.2,212.6,41.7,291.7-37.4   C504.161,316.455,504.161,164.255,410.361,70.355z M116.561,195.355c0-29.4,24-53.4,53.4-53.4s53.4,24,53.4,53.4   s-24,53.4-53.4,53.4C140.461,248.755,116.661,224.855,116.561,195.355z M180.261,333.255c-4.6,5.5-12.8,6.3-18.3,1.7   c-5.5-4.6-6.3-12.8-1.7-18.3l140.2-168.8c4.6-5.5,12.8-6.3,18.3-1.7s6.3,12.8,1.7,18.3L180.261,333.255z M310.761,338.755   c-29.4,0-53.4-24-53.4-53.4s24-53.4,53.4-53.4s53.4,24,53.4,53.4S340.261,338.755,310.761,338.755z" id="svg_4" fill="#d5d50b" fill-opacity="1"/>
</g><g id="svg_5">
</g><g id="svg_6">
</g><g id="svg_7">
</g><g id="svg_8">
</g><g id="svg_9">
</g><g id="svg_10">
</g><g id="svg_11">
</g><g id="svg_12">
</g><g id="svg_13">
</g><g id="svg_14">
</g><g id="svg_15">
</g><g id="svg_16">
</g><g id="svg_17">
</g><g id="svg_18">
</g><g id="svg_19">
</g></g></svg>